<svg xmlns="http://www.w3.org/2000/svg" viewBox="0 0 1996 520">
  <path fill="#ff7251" fill-rule="evenodd" d="M240 50.6a76.9 76.9 0 0 0-17.8 4.6c-5.4 2.4-134.5 76-144 82a52.2 52.2 0 0 0-18.4 20.5c-7.7 14.6-7.3 8.7-7.3 104.3s-.4 89.5 7.3 104.3a52 52 0 0 0 18.4 20.5c10.7 6.9 139 79.8 144.3 82a56 56 0 0 0 41.4 1.5c3-1 15.9-7.6 28.6-14.9 27-15.5 29-17.4 29-27.7 0-4.8-.6-7-2.4-10-3-5-8.5-8.5-14.2-9.3-5.6-.8-8.3.4-26.7 11l-13.8 7.6c-.2 0-.4-34.6-.4-76.9v-76.8l47.3-27.1 67.2-38.6 20-11.5.5 16.7c.5 17.7 1.2 20.3 6.2 24.9 3 2.8 9.3 5.3 13.2 5.3 8.5 0 16.7-7.4 18.6-16.7 1.9-8.6.7-49-1.5-56.3a60 60 0 0 0-22.4-32 6771 6771 0 0 0-145.7-82.9 62.3 62.3 0 0 0-27.4-4.5m545.5 27.6c-.3.7-.4 63.2-.3 138.8l.3 137.5h50l.3-43.8c.1-27.8.6-43.7 1.2-43.5.5.2 15.2 19.2 32.6 42.3l33.1 43.8c1.5 1.5 4.3 1.7 31.5 1.7 16.4 0 29.8-.3 29.8-.7s-16.9-22.3-37.5-48.6c-23.7-30-37.3-48.2-36.8-49 .4-.6 13.5-16.7 29.2-35.7l34.5-41.9a71 71 0 0 0 6.4-8.2c.2-.5-11.8-.9-28.2-.9H903l-19.7 24.8-33.2 41.7-13.6 17-.5-88-.5-88-24.8-.3c-19.3-.2-24.9 0-25.2 1m755.5 5.5a31 31 0 0 0-16.4 17.8c-4 12.2.5 26 10.4 32.7 12.7 8.7 31.6 5.6 39.8-6.6a35 35 0 0 0 4.8-20 28.7 28.7 0 0 0-38.6-23.9M234 92.3c-3.6 2-13.2 7.3-21.3 12l-14.8 8.5 5.3 3 67 38.5L332 190l23.6-13.6c13-7.5 23.3-13.9 22.8-14.3l-63.8-36.5c-58.4-33.3-63.4-36-68.5-36.3-4.8-.3-6.3 0-12 3.1m-98 55.8L112.2 162c-1 .5 2.3 2.8 10 7.3L245 239c.8 0 11.9-6 24.7-13.4l23.4-13.4-5.9-3.4L160 135.7c-.8-.3-11.6 5.3-24 12.4m1276.8 18c-28 4.1-46.7 17.9-53.4 39.5a46.7 46.7 0 0 0-2.2 20.8c.4 11.9.5 12.7 4 19.7 8.3 16.6 21.3 24.7 55.3 34.5 22.8 6.6 29 9.8 32 16.4 3.5 7.7-.4 14.7-9.8 17.5a68.3 68.3 0 0 1-58.2-14l-6.2-5.3-15 15-14.8 15 7.1 6.6a104 104 0 0 0 49.9 24.7 78 78 0 0 0 27.5 2.2 78 78 0 0 0 39.3-9 53.5 53.5 0 0 0 29.4-53.5 45 45 0 0 0-9.5-28c-11.4-14-19.4-18-63-31.3-12.3-3.8-17.6-7.3-19.3-12.7-1-3.3-.9-4.5.6-7.5 2.3-5 7.9-7.5 18-8.3a53 53 0 0 1 40.5 13.8l5.3 5 14.8-14.8a242 242 0 0 0 14.9-15.6c0-1.8-13.4-13.9-20.1-18.1a106 106 0 0 0-67-12.6m450.6-.5a95 95 0 0 0-90.6 96.3c0 27.7 9 50 27.8 68.6a92.2 92.2 0 0 0 36.3 22.3c12.2 4.2 21.5 5.6 38 5.5a97.6 97.6 0 0 0 69.5-27.3l4-4-14.7-14.7-14.6-14.6-3.5 3a58.8 58.8 0 0 1-43 15.4c-21 0-37-9-45.2-25.4-6-12-13.5-10.7 63.5-10.7h67l1.2-2.7c1.6-4 2.2-28 .9-36a86.8 86.8 0 0 0-71.6-74.2c-7.4-1.2-19.6-1.9-25-1.5m-1211 1.4a85.5 85.5 0 0 0-31.6 15.1c-2 1.6-4 2.9-4.3 2.9s-.6-3.4-.6-7.5V170h-50v262h50v-46l.6-46a27 27 0 0 1 4.7 3.4 76.5 76.5 0 0 0 38.7 14.5 83.1 83.1 0 0 0 70.4-24.4 97.7 97.7 0 0 0 27.6-71 98 98 0 0 0-17.3-59 87.6 87.6 0 0 0-47.9-34.6 139 139 0 0 0-40.3-2m378.2.6c-15.5 3.2-30 11-41.7 22.5a86.7 86.7 0 0 0-26 49.4 163 163 0 0 0 0 35.6 88.5 88.5 0 0 0 53 68.6 112 112 0 0 0 34 6.4 82 82 0 0 0 46-14.6c2.6-1.9 5-3.4 5.5-3.4 1.6 0-.5 24.8-2.5 30.3a41.3 41.3 0 0 1-26.4 25.6c-6.5 2.4-8.4 2.6-22.1 2.5a54 54 0 0 1-23-2.8c-10-3.5-18-8.3-26-15.7a40 40 0 0 0-7.2-5.9 301 301 0 0 0-30.3 31.2c0 2.7 13.3 15.8 21.6 21.4A110.8 110.8 0 0 0 1051 437c32.3 0 59.1-10.4 77.7-30.2 9.3-9.8 16.7-23 19.9-35.3 3.2-12.2 3.6-25.7 3.3-114l-.3-88h-49l-.3 7.2c-.2 4-.5 7.3-.8 7.3s-2.8-1.8-5.7-3.9c-6.6-5-13.3-8.3-22.2-11-9-3-32.4-3.8-42.8-1.6m495.3 95V355l25.3-.2 25.2-.3.3-92.3.2-92.2h-51v92.5m83-71V213h39.6c33.9 0 39.5.2 39 1.4-.2.8-13.4 18.2-29.3 38.8l-42.5 55.2-13.8 18V355h157v-44l-42-.2-42-.3 13.8-18 43-55.9 29.2-37.9V170h-152v21.5M91 269.3c0 80.7-.3 77.3 6.2 83.3a4761 4761 0 0 0 126.5 73.3l2.3 1.2V273.3l-64.3-36.9-67.4-38.7-3.3-1.9v73.5m1766.6-60.7a46.9 46.9 0 0 0-33.6 31.9c0 1.3 5.2 1.5 44.4 1.5h44.4l-1-3.8c-6.4-23.5-28.8-35.8-54.2-29.6m-808.6 3.8a37 37 0 0 0-18.2 7.9c-7 5.5-9.2 8.1-12.7 15.2-11.5 23.3-2.8 52.5 18.9 63.3a47.9 47.9 0 0 0 26.7 5c7.4-.5 10.4-1.2 15.6-3.7A45.5 45.5 0 0 0 1104 265c3-28.2-11.5-48.8-37.5-53a37.4 37.4 0 0 0-17.5.4m-398.9.7a53.8 53.8 0 0 0-21.1 10.5 53.8 53.8 0 0 0-13.7 21.2 84.8 84.8 0 0 0-.4 32.7A44.4 44.4 0 0 0 660 312c10.4 0 18-2.2 26.1-7.6 17-11.3 24.7-34.2 19-56.7a39.9 39.9 0 0 0-12-21.7 47.4 47.4 0 0 0-43-13m539.9 44v23h133v-46h-133v23m-833.6 6.5a68.4 68.4 0 0 0-52 51 60.3 60.3 0 0 0-1.1 18c.8 18.6 6.4 31 19.8 44.6 6.2 6.3 9.3 8.5 17 12.2a58 58 0 0 0 29.9 7.1c10.3 0 17.2-1.3 26.4-5.1l6-2.5 12 12c7 7.1 13.6 12.8 15.8 13.7 14.5 6 29.8-7.5 25.8-22.6-1-3.6-3.5-6.7-13.6-17-6.8-6.8-12.4-13-12.4-13.6s.9-3 2-5.5a73 73 0 0 0 3.5-42.3 68 68 0 0 0-79.2-50m3.3 39c-18.9 7-24.3 32.7-10 47.1a27 27 0 0 0 19 8.2c6.1.4 8 0 12.5-2a27.3 27.3 0 0 0 14.4-13c2.6-4.6 3-6.3 3-13.3 0-6.7-.5-8.8-2.7-13a31 31 0 0 0-14.2-13.6c-5-2.3-16.3-2.4-22-.3"/>
</svg>
